<svg width="1200" height="630" viewBox="0 0 1200 630" fill="none" xmlns="http://www.w3.org/2000/svg">
  <rect width="1200" height="630" fill="#07111D"/>
  <rect x="48" y="48" width="1104" height="534" rx="36" fill="url(#paint0_radial)" fill-opacity="0.16" stroke="#7EDFFF" stroke-opacity="0.24"/>
  <rect x="88" y="88" width="530" height="454" rx="28" fill="#0C1A2B" stroke="#1E3852"/>
  <text x="120" y="204" fill="#95D8FF" font-size="20" font-family="IBM Plex Mono, monospace" letter-spacing="3">AI CAD AGENT</text>
  <text x="120" y="292" fill="#F4F8FC" font-size="64" font-family="Space Grotesk, sans-serif" font-weight="700">浏览器里的 CAD Agent</text>
  <text x="120" y="362" fill="#B6C9DB" font-size="28" font-family="Space Grotesk, sans-serif">Try editable AI CAD in the browser.</text>
  <text x="120" y="404" fill="#B6C9DB" font-size="28" font-family="Space Grotesk, sans-serif">Use the open-source desktop for local control.</text>
  <rect x="710" y="104" width="390" height="422" rx="34" fill="#0D1F33" stroke="#244B74"/>
  <circle cx="905" cy="315" r="122" fill="url(#paint1_linear)"/>
  <circle cx="905" cy="315" r="64" fill="#07111D"/>
  <circle cx="905" cy="193" r="12" fill="#07111D"/>
  <circle cx="1010" cy="253" r="12" fill="#07111D"/>
  <circle cx="1010" cy="377" r="12" fill="#07111D"/>
  <circle cx="905" cy="437" r="12" fill="#07111D"/>
  <circle cx="800" cy="377" r="12" fill="#07111D"/>
  <circle cx="800" cy="253" r="12" fill="#07111D"/>
  <rect x="760" y="124" width="300" height="72" rx="18" fill="#10263B" stroke="#2C597A"/>
  <text x="790" y="168" fill="#62F7B0" font-size="22" font-family="IBM Plex Mono, monospace">browser_run: ok</text>
  <defs>
    <radialGradient id="paint0_radial" cx="0" cy="0" r="1" gradientUnits="userSpaceOnUse" gradientTransform="translate(200 80) rotate(39.4) scale(1123.98 1101.27)">
      <stop stop-color="#5AD4FF"/>
      <stop offset="1" stop-color="#8F67FF"/>
    </radialGradient>
    <linearGradient id="paint1_linear" x1="795" y1="220" x2="1036" y2="401" gradientUnits="userSpaceOnUse">
      <stop stop-color="#34BDE7"/>
      <stop offset="1" stop-color="#173E73"/>
    </linearGradient>
  </defs>
</svg>
